<svg width="24" height="25" viewBox="0 0 24 25" fill="none" xmlns="http://www.w3.org/2000/svg">
<path fill-rule="evenodd" clip-rule="evenodd" d="M12 3.55859C7.03145 3.55859 3 7.59004 3 12.5586C3 17.5272 7.03145 21.5586 12 21.5586C16.9588 21.5586 21 17.5272 21 12.5586C21 7.59004 16.9588 3.55859 12 3.55859ZM17.9447 7.70718C19.0184 9.01521 19.6627 10.6844 19.6822 12.4903C19.4284 12.4415 16.8904 11.9241 14.333 12.2462C14.2744 12.1193 14.2256 11.9827 14.167 11.846C14.0108 11.4751 13.8352 11.0944 13.6594 10.7332C16.4902 9.58139 17.7787 7.92193 17.9447 7.70718ZM12 4.88614C13.9523 4.88614 15.7386 5.61825 17.0955 6.8189C16.9588 7.01412 15.7972 8.56618 13.064 9.59112C11.8048 7.27768 10.4089 5.38397 10.1942 5.09113C10.77 4.95447 11.3753 4.88614 12 4.88614ZM8.72996 5.60848C8.93494 5.8818 10.3015 7.78527 11.5803 10.0499C7.98807 11.0066 4.81562 10.987 4.47397 10.987C4.9718 8.60523 6.58243 6.62366 8.72996 5.60848ZM4.30803 12.5684C4.30803 12.4903 4.30803 12.4122 4.30803 12.3341C4.63991 12.3438 8.36876 12.3927 12.205 11.2408C12.4295 11.6703 12.6345 12.1096 12.8297 12.5488C12.7321 12.5781 12.6247 12.6074 12.5271 12.6367C8.56399 13.9154 6.45553 17.41 6.27983 17.7028C5.05965 16.346 4.30803 14.5402 4.30803 12.5684ZM12 20.2506C10.2234 20.2506 8.58352 19.6454 7.28525 18.6302C7.42191 18.3471 8.98371 15.3406 13.3178 13.8276C13.3373 13.8178 13.3471 13.8178 13.3666 13.8081C14.4501 16.6096 14.8894 18.962 15.0065 19.6356C14.0792 20.0358 13.064 20.2506 12 20.2506ZM16.2852 18.9328C16.2072 18.4642 15.7972 16.2191 14.7917 13.4566C17.2028 13.0759 19.3113 13.7007 19.5749 13.7886C19.243 15.9263 18.013 17.7712 16.2852 18.9328Z" fill="#F47726"/>
</svg>
