<svg width="24" height="25" viewBox="0 0 24 25" fill="none" xmlns="http://www.w3.org/2000/svg">
<path fill-rule="evenodd" clip-rule="evenodd" d="M5 3.55859H19C20.1046 3.55859 21 4.45402 21 5.55859V19.5586C21 20.6632 20.1046 21.5586 19 21.5586H5C3.89543 21.5586 3 20.6632 3 19.5586V5.55859C3 4.45402 3.89543 3.55859 5 3.55859ZM8 18.5586C8.27614 18.5586 8.5 18.3347 8.5 18.0586V11.0586C8.5 10.7825 8.27614 10.5586 8 10.5586H6.5C6.22386 10.5586 6 10.7825 6 11.0586V18.0586C6 18.3347 6.22386 18.5586 6.5 18.5586H8ZM7.25 9.55859C6.42157 9.55859 5.75 8.88702 5.75 8.05859C5.75 7.23016 6.42157 6.55859 7.25 6.55859C8.07843 6.55859 8.75 7.23016 8.75 8.05859C8.75 8.88702 8.07843 9.55859 7.25 9.55859ZM17.5 18.5586C17.7761 18.5586 18 18.3347 18 18.0586V13.4586C18.0325 11.8694 16.8576 10.5131 15.28 10.3186C14.177 10.2178 13.1083 10.733 12.5 11.6586V11.0586C12.5 10.7825 12.2761 10.5586 12 10.5586H10.5C10.2239 10.5586 10 10.7825 10 11.0586V18.0586C10 18.3347 10.2239 18.5586 10.5 18.5586H12C12.2761 18.5586 12.5 18.3347 12.5 18.0586V14.3086C12.5 13.4802 13.1716 12.8086 14 12.8086C14.8284 12.8086 15.5 13.4802 15.5 14.3086V18.0586C15.5 18.3347 15.7239 18.5586 16 18.5586H17.5Z" fill="#F47726"/>
</svg>
