<svg width="24" height="25" viewBox="0 0 24 25" fill="none" xmlns="http://www.w3.org/2000/svg">
<path d="M20.9727 7.276C20.5083 7.89552 19.9469 8.43593 19.3102 8.87636C19.3102 9.03819 19.3102 9.20002 19.3102 9.37085C19.3153 12.3097 18.1414 15.1277 16.0517 17.1931C13.9619 19.2585 11.1311 20.3985 8.19393 20.3575C6.49587 20.3632 4.81955 19.9755 3.2963 19.2247C3.21416 19.1888 3.16119 19.1076 3.1615 19.0179V18.919C3.1615 18.7899 3.26611 18.6853 3.39515 18.6853C5.0643 18.6302 6.6739 18.0515 7.99622 17.031C6.48541 17.0005 5.12607 16.1055 4.50048 14.7293C4.46889 14.6542 4.47872 14.5679 4.52645 14.5018C4.57417 14.4357 4.65288 14.3993 4.73413 14.4057C5.1933 14.4518 5.65706 14.4091 6.10008 14.2798C4.43227 13.9336 3.17909 12.549 2.99974 10.8543C2.99337 10.773 3.0298 10.6943 3.09588 10.6465C3.16195 10.5988 3.24812 10.5889 3.32326 10.6206C3.77082 10.8181 4.25397 10.9221 4.74312 10.9262C3.28172 9.96706 2.65049 8.14265 3.20643 6.48482C3.26382 6.32373 3.40169 6.20472 3.56938 6.17154C3.73706 6.13835 3.90984 6.19588 4.0242 6.32299C5.99627 8.42185 8.70592 9.67256 11.5818 9.81139C11.5082 9.51745 11.472 9.21536 11.474 8.91232C11.5009 7.32332 12.4841 5.90781 13.9633 5.32847C15.4424 4.74914 17.1248 5.12063 18.2229 6.26904C18.9713 6.12645 19.6949 5.87505 20.3706 5.52281C20.4201 5.49191 20.4829 5.49191 20.5324 5.52281C20.5633 5.57233 20.5633 5.63512 20.5324 5.68464C20.2051 6.43412 19.6522 7.06272 18.9508 7.48279C19.565 7.41156 20.1684 7.26667 20.7481 7.05124C20.7969 7.01802 20.861 7.01802 20.9098 7.05124C20.9507 7.06994 20.9813 7.10571 20.9934 7.14902C21.0055 7.19233 20.9979 7.23878 20.9727 7.276Z" fill="#F47726"/>
</svg>
